<?xml version="1.0" encoding="iso-8859-1"?>
<!-- Generator: Adobe Illustrator 18.0.0, SVG Export Plug-In . SVG Version: 6.00 Build 0)  -->
<!DOCTYPE svg PUBLIC "-//W3C//DTD SVG 1.1//EN" "http://www.w3.org/Graphics/SVG/1.1/DTD/svg11.dtd">
<svg version="1.1" id="Capa_1" xmlns="http://www.w3.org/2000/svg" xmlns:xlink="http://www.w3.org/1999/xlink" x="0px" y="0px"
	 viewBox="0 0 474.578 474.578" style="enable-background:new 0 0 474.578 474.578;" xml:space="preserve">
<path d="M461.972,201.317L276.284,15.63c-20.84-20.84-57.154-20.84-77.993,0L12.573,201.348
	c-11.036,11.067-14.305,27.538-8.309,42.003c6.012,14.435,19.977,23.761,35.59,23.761h13.765v152.315
	c0,30.412,24.739,55.151,55.149,55.151h257.038c30.41,0,55.149-24.739,55.149-55.151V267.111h13.765
	c15.613,0,29.578-9.326,35.605-23.8C476.306,228.886,473.038,212.415,461.972,201.317z M397.28,219.761
	c-13.07,0-23.675,10.596-23.675,23.676v96.835H260.963V281.77c24.568-9.541,42.095-33.294,42.095-61.192
	c0-36.268-29.501-65.77-65.77-65.77c-36.27,0-65.771,29.503-65.771,65.77c0,27.898,17.526,51.651,42.095,61.192v62.178
	c0,24.084,19.591,43.675,43.683,43.675h116.311v31.805c0,4.302-3.499,7.801-7.799,7.801H108.768c-4.299,0-7.799-3.499-7.799-7.801
	v-175.99c0-13.08-10.604-23.676-23.675-23.676H61.126L231.769,49.107c2.96-2.943,8.076-2.943,11.036,0l170.644,170.653H397.28z
	 M218.868,220.577c0-10.157,8.261-18.42,18.42-18.42c10.158,0,18.419,8.263,18.419,18.42c0,10.158-8.261,18.427-18.419,18.427
	C227.129,239.004,218.868,230.735,218.868,220.577z"/>
<g>
</g>
<g>
</g>
<g>
</g>
<g>
</g>
<g>
</g>
<g>
</g>
<g>
</g>
<g>
</g>
<g>
</g>
<g>
</g>
<g>
</g>
<g>
</g>
<g>
</g>
<g>
</g>
<g>
</g>
</svg>
